<svg xmlns="http://www.w3.org/2000/svg" version="1.1" xmlns:xlink="http://www.w3.org/1999/xlink" xmlns:svgjs="http://svgjs.dev/svgjs" width="1000" height="300" viewBox="0 0 1000 300"><g transform="matrix(1,0,0,1,-0.6060606060606233,-0.4336134453781426)"><svg viewBox="0 0 396 119" data-background-color="#003366" preserveAspectRatio="xMidYMid meet" height="300" width="1000" xmlns="http://www.w3.org/2000/svg" xmlns:xlink="http://www.w3.org/1999/xlink"><g id="tight-bounds" transform="matrix(1,0,0,1,0.2400000000000091,0.17199999999999704)"><svg viewBox="0 0 395.52 118.656" height="118.656" width="395.52"><g><svg viewBox="0 0 395.52 118.656" height="118.656" width="395.52"><g><svg viewBox="0 0 395.52 118.656" height="118.656" width="395.52"><g id="textblocktransform"><svg viewBox="0 0 395.52 118.656" height="118.656" width="395.52" id="textblock"><g><svg viewBox="0 0 395.52 118.656" height="118.656" width="395.52"><g transform="matrix(1,0,0,1,0,0)"><svg width="395.52" viewBox="2.65 -25.35 85.99 25.8" height="118.656" data-palette-color="#ffffff"><path d="M2.65 0.45L2.9-1.6Q4.8-1.95 5.45-2.63 6.1-3.3 6.1-4.95L6.1-4.95 6.15-20.85Q6.15-22.1 5.85-22.53 5.55-22.95 4.65-22.95L4.65-22.95 3-22.9 2.9-23.1 3.15-25Q3.45-25 4.78-24.95 6.1-24.9 8.25-24.9L8.25-24.9Q9.4-24.9 11.08-25.05 12.75-25.2 13.25-25.25L13.25-25.25 13.05-23.2Q11.4-23 10.85-22.58 10.3-22.15 10.2-21L10.2-21Q10-17 9.83-12.15 9.65-7.3 9.65-4.65L9.65-4.65Q9.65-3.05 10-2.5 10.35-1.95 11.4-1.95L11.4-1.95Q12.1-1.95 12.68-2 13.25-2.05 13.45-2.1L13.45-2.1 13.55-1.9 13.2 0.1Q12.6 0.1 10.95 0.05 9.3 0 7.65 0L7.65 0Q6.3 0 4.73 0.18 3.15 0.35 2.65 0.45L2.65 0.45ZM30.25 0.45Q24.6 0.45 21.3-2.8 18-6.05 18-11.65L18-11.65Q18-15.6 19.82-18.73 21.65-21.85 24.92-23.6 28.2-25.35 32.35-25.35L32.35-25.35Q33.85-25.35 35.47-25.15 37.1-24.95 38.22-24.7 39.35-24.45 39.65-24.4L39.65-24.4 39.85-24.1Q39.8-23.85 39.6-22.93 39.4-22 39.15-20.5 38.9-19 38.8-17.3L38.8-17.3 36.3-17.15Q36.3-17.3 36.35-17.85 36.4-18.4 36.4-19.1L36.4-19.1Q36.4-22.6 30.8-22.6L30.8-22.6Q26.9-22.6 24.65-20.03 22.4-17.45 22.4-12.95L22.4-12.95Q22.4-7.95 24.77-5 27.15-2.05 31.15-2.05L31.15-2.05Q33.8-2.05 35.37-3.48 36.95-4.9 37.65-7.95L37.65-7.95 40.15-8.15Q40-7.55 39.62-5.45 39.25-3.35 39.1-1.5L39.1-1.5 38.8-1.1Q38.5-1 37.37-0.63 36.25-0.25 34.35 0.1 32.45 0.45 30.25 0.45L30.25 0.45ZM56.3 0.45Q50.65 0.45 47.35-2.8 44.05-6.05 44.05-11.65L44.05-11.65Q44.05-15.6 45.87-18.73 47.7-21.85 50.97-23.6 54.25-25.35 58.4-25.35L58.4-25.35Q59.9-25.35 61.52-25.15 63.15-24.95 64.27-24.7 65.4-24.45 65.7-24.4L65.7-24.4 65.9-24.1Q65.84-23.85 65.65-22.93 65.45-22 65.2-20.5 64.95-19 64.84-17.3L64.84-17.3 62.35-17.15Q62.35-17.3 62.4-17.85 62.45-18.4 62.45-19.1L62.45-19.1Q62.45-22.6 56.85-22.6L56.85-22.6Q52.95-22.6 50.7-20.03 48.45-17.45 48.45-12.95L48.45-12.95Q48.45-7.95 50.82-5 53.2-2.05 57.2-2.05L57.2-2.05Q59.85-2.05 61.42-3.48 63-4.9 63.7-7.95L63.7-7.95 66.2-8.15Q66.05-7.55 65.67-5.45 65.3-3.35 65.15-1.5L65.15-1.5 64.84-1.1Q64.55-1 63.42-0.63 62.3-0.25 60.4 0.1 58.5 0.45 56.3 0.45L56.3 0.45ZM78.19 0.45Q76.44 0.45 74.97 0.15 73.49-0.15 72.62-0.48 71.74-0.8 71.54-0.9L71.54-0.9 71.29-1.35Q71.34-1.6 71.47-2.48 71.59-3.35 71.72-4.93 71.84-6.5 71.84-8.1L71.84-8.1 74.09-8.3Q74.09-5.6 74.52-4.28 74.94-2.95 75.99-2.45 77.04-1.95 79.19-1.95L79.19-1.95Q81.59-1.95 83.07-3 84.54-4.05 84.54-5.8L84.54-5.8Q84.54-6.95 83.72-7.83 82.89-8.7 81.82-9.3 80.74-9.9 78.39-11.05L78.39-11.05Q75.19-12.6 73.47-14.1 71.74-15.6 71.74-17.95L71.74-17.95Q71.74-20.05 73.02-21.75 74.29-23.45 76.54-24.4 78.79-25.35 81.54-25.35L81.54-25.35Q83.19-25.35 84.64-25.15 86.09-24.95 86.94-24.73 87.79-24.5 87.99-24.4L87.99-24.4 88.19-24.05Q88.09-23.5 87.74-21.58 87.39-19.65 87.24-17.45L87.24-17.45 85.29-17.25 84.99-17.45Q84.99-17.6 85.04-18.07 85.09-18.55 85.09-19.25L85.09-19.25Q85.09-21.2 84.07-21.98 83.04-22.75 80.44-22.75L80.44-22.75Q78.34-22.75 76.97-21.78 75.59-20.8 75.59-19.3L75.59-19.3Q75.59-17.8 76.97-16.75 78.34-15.7 81.14-14.35L81.14-14.35Q83.59-13.2 85.07-12.35 86.54-11.5 87.59-10.2 88.64-8.9 88.64-7.2L88.64-7.2Q88.64-4.95 87.32-3.23 85.99-1.5 83.62-0.53 81.24 0.45 78.19 0.45L78.19 0.45Z" opacity="1" transform="matrix(1,0,0,1,0,0)" fill="#ffffff" class="wordmark-text-0" data-fill-palette-color="primary" id="text-0"></path></svg></g></svg></g></svg></g></svg></g><g></g></svg></g><defs></defs></svg><rect width="395.52" height="118.656" fill="none" stroke="none" visibility="hidden"></rect></g></svg></g></svg>